<?xml version="1.0" encoding="UTF-8"?>
<!DOCTYPE svg PUBLIC "-//W3C//DTD SVG 1.1//EN" "http://www.w3.org/Graphics/SVG/1.1/DTD/svg11.dtd">
<!-- Creator: CorelDRAW X7 -->
<svg xmlns="http://www.w3.org/2000/svg" xml:space="preserve" width="88.9mm" height="50.8mm" version="1.1" style="shape-rendering:geometricPrecision; text-rendering:geometricPrecision; image-rendering:optimizeQuality; fill-rule:evenodd; clip-rule:evenodd"
viewBox="0 0 8890 5080"
 xmlns:xlink="http://www.w3.org/1999/xlink">
 <defs>
  <style type="text/css">
   <![CDATA[
    .str0 {stroke:#DB7618;stroke-width:7.62}
    .fil0 {fill:#DB7618}
   ]]>
  </style>
 </defs>
 <g id="Layer_x0020_1">
  <metadata id="CorelCorpID_0Corel-Layer"/>
  <path class="fil0" d="M2779 550l-2 -20c-7,0 -16,0 -28,-1 -12,-1 -22,-1 -30,-1 -15,-3 -31,-4 -48,-1 -17,2 -33,4 -48,6l-80 7c-44,3 -88,2 -133,-4 -44,-5 -88,-10 -132,-15 -5,-2 -8,-1 -11,3 -2,4 -2,8 1,11 11,10 23,16 37,18 14,3 28,6 41,9 16,3 31,6 46,9 15,4 29,11 42,23 13,12 24,30 31,53 8,24 12,55 12,95 0,201 2,401 7,601 4,200 6,400 6,600l0 19c-215,-256 -429,-504 -643,-746 -213,-242 -433,-485 -659,-729 -3,-3 -7,-3 -13,0 -8,7 -14,30 -18,71 -3,41 -7,94 -9,158 -2,64 -4,137 -4,219 -1,82 -2,167 -2,256 0,130 1,258 2,383 0,125 2,232 3,320 2,42 2,78 2,109 0,30 0,53 0,67 0,29 -2,53 -8,71 -5,19 -12,34 -21,46 -10,12 -20,22 -32,29 -13,7 -26,15 -39,23 -13,8 -25,16 -37,24 -12,8 -26,19 -41,31 -3,4 -4,8 -1,12 2,5 5,7 8,5 39,-6 79,-12 119,-17 39,-4 78,-7 116,-7 29,0 58,1 86,4 28,2 56,5 84,8 21,3 43,6 64,7 21,2 43,4 64,5 5,0 7,-2 8,-6 1,-4 0,-7 -3,-11 -20,-16 -39,-27 -58,-32 -18,-6 -36,-10 -52,-13 -16,-4 -30,-8 -43,-12 -13,-5 -24,-14 -34,-26 -10,-12 -18,-29 -23,-53 -5,-23 -8,-56 -8,-97 0,-84 -1,-167 -4,-249 -4,-82 -7,-164 -10,-248 -3,-85 -6,-169 -9,-252 -3,-82 -4,-165 -4,-247 0,-30 1,-60 3,-89 2,-29 5,-58 8,-89 31,35 58,68 81,98 24,29 51,63 82,100 180,217 363,432 549,645 186,214 383,415 590,603 3,3 7,4 11,1 3,-2 5,-5 5,-8 13,-148 21,-295 24,-440 4,-145 6,-291 6,-437 0,-68 0,-134 0,-198 0,-66 -1,-132 -2,-198 -2,-66 -2,-131 -2,-197 0,-66 0,-132 0,-198 0,-16 4,-30 12,-42 8,-12 20,-22 33,-29 14,-7 29,-13 45,-18 16,-5 31,-10 45,-14 3,-2 6,-3 9,-3 3,0 6,-1 9,-2zm535 1588l0 -20c-55,-4 -93,-20 -115,-47 -22,-26 -33,-70 -33,-131l0 -993c0,-41 10,-68 31,-79 20,-11 47,-21 81,-29 4,-2 6,-6 4,-12 -1,-7 -4,-9 -9,-7 -30,4 -62,8 -94,9 -32,2 -64,3 -96,3 -33,0 -66,-1 -98,-3 -32,-1 -64,-4 -96,-7 -5,0 -8,3 -8,8 -1,6 1,10 5,11 32,5 60,15 84,29 24,15 35,40 35,77l0 1000c0,42 -8,78 -26,108 -17,29 -45,51 -83,66 -5,1 -7,5 -6,11 1,5 3,8 8,8 41,-1 81,-3 121,-3 40,-1 80,-2 121,-2 29,0 58,1 86,2 29,0 58,1 88,1zm1360 -680c0,-90 -16,-175 -47,-254 -31,-80 -74,-149 -129,-207 -55,-59 -121,-105 -196,-139 -76,-34 -158,-50 -246,-50 -29,0 -59,0 -90,1 -32,1 -62,3 -91,6 -30,3 -61,5 -91,7 -31,2 -61,2 -92,2 -24,0 -50,0 -78,-2 -27,-2 -52,-3 -75,-5 -20,-1 -39,-3 -58,-3 -18,-1 -37,-2 -57,-2 -10,0 -13,5 -7,15 5,8 12,13 21,17 9,3 19,5 30,7 18,3 36,10 55,20 18,11 27,35 27,72l0 995c0,51 -6,90 -17,115 -11,26 -42,45 -93,56 -4,1 -6,5 -5,11 0,5 3,8 8,8 44,-2 88,-1 133,3 45,3 90,6 134,9 40,3 81,7 123,10 42,3 83,5 122,5 107,0 205,-14 293,-43 89,-28 164,-70 227,-127 62,-57 111,-130 146,-217 35,-88 53,-191 53,-310zm-156 68c0,91 -14,172 -41,241 -27,69 -66,126 -117,172 -50,46 -110,80 -179,104 -70,23 -146,34 -230,34 -42,0 -77,-2 -107,-6 -30,-4 -54,-13 -74,-27 -20,-15 -35,-36 -45,-63 -10,-27 -15,-64 -15,-111l0 -956c29,-12 59,-19 90,-22 30,-3 61,-5 91,-5 92,0 176,15 253,45 77,29 143,72 198,127 55,56 98,123 129,202 32,78 47,167 47,265zm1550 595c-52,-10 -90,-28 -113,-56 -22,-27 -34,-68 -34,-122l0 -988c0,-41 10,-67 30,-79 20,-12 46,-21 80,-27 5,-2 7,-6 6,-11 -1,-6 -4,-9 -8,-9 -31,2 -62,3 -93,4 -31,1 -62,1 -93,1 -68,0 -139,-2 -212,-7 -5,0 -8,3 -9,8 0,6 2,10 6,11 6,2 12,3 17,5 6,2 11,3 18,5 27,8 50,17 69,27 19,11 29,35 29,74l0 410 -700 0 0 -420c0,-32 11,-57 33,-74 22,-18 47,-27 74,-27 5,0 7,-3 7,-10 0,-6 -2,-9 -7,-9l-48 0c-26,0 -52,0 -78,1 -26,1 -52,1 -77,1 -63,0 -126,-2 -190,-7l0 19c30,2 59,12 85,29 27,18 40,44 40,80l0 1026c0,26 -1,47 -3,63 -2,16 -7,29 -15,40 -8,10 -19,18 -34,24 -15,5 -35,11 -60,15 -4,2 -6,6 -5,11 0,6 3,9 8,9 6,0 13,0 21,1 9,1 16,1 22,1 20,2 40,3 60,3 19,0 38,0 57,0 17,0 36,-1 58,-2 22,0 42,-1 58,-1 25,-1 48,-2 69,-2 23,0 47,0 71,0 5,0 7,-3 7,-10 0,-6 -2,-10 -7,-10 -99,-9 -149,-65 -149,-166l0 -506 703 0 0 501c0,52 -7,90 -21,114 -13,24 -44,43 -91,57 -5,2 -7,6 -6,11 1,6 4,9 8,9 31,-2 60,-3 88,-4 28,-1 57,-1 86,-1 79,0 159,2 240,7l3 -19zm846 -217l-18 -5c-12,55 -37,97 -74,127 -38,29 -83,44 -136,44 -40,0 -81,-9 -123,-27 -42,-19 -74,-46 -97,-81l0 -497 69 0c12,0 29,0 52,0 23,0 46,2 70,4 24,2 46,6 66,10 21,4 35,10 43,18 7,8 13,17 16,26 3,10 6,20 9,29 3,10 6,19 8,27 2,8 7,16 15,24 3,3 6,4 10,2 4,-1 6,-5 6,-9 3,-20 5,-40 7,-61 1,-21 3,-41 6,-60 4,-19 6,-40 8,-63 3,-22 5,-43 6,-62 0,-10 -4,-13 -11,-10 -17,5 -34,12 -51,22 -12,5 -24,9 -36,14 -12,5 -22,7 -30,7l-265 0 0 -494 180 0c49,0 90,9 124,27 34,18 52,55 55,111 0,5 3,7 8,8 5,1 9,-1 10,-6 8,-37 15,-73 22,-109 7,-37 13,-75 17,-117 0,-10 -4,-13 -11,-10 -6,3 -13,6 -20,9 -7,2 -13,5 -19,8l-653 0c-4,0 -7,2 -8,6 0,4 1,8 4,11 12,8 24,14 35,18 12,4 22,8 31,11 17,6 33,14 47,24 15,9 22,30 22,63l0 1002c0,21 -1,41 -3,61 -3,20 -8,39 -15,55 -8,16 -19,29 -34,39 -14,11 -33,16 -56,16l0 19c42,-1 83,-2 125,-3 42,-1 84,-1 125,-1 30,0 60,0 89,1 29,1 59,1 89,1 35,0 71,0 107,1 36,1 71,1 106,1 8,0 18,-2 30,-7l2 -2c6,0 9,-3 9,-8 5,-36 10,-72 14,-107 5,-34 11,-70 18,-107zm847 0l-18 -5c-12,55 -37,97 -74,127 -38,29 -83,44 -137,44 -39,0 -80,-9 -122,-27 -42,-19 -74,-46 -97,-81l0 -497 68 0c12,0 30,0 53,0 23,0 46,2 70,4 23,2 46,6 66,10 21,4 35,10 42,18 8,8 13,17 16,26 4,10 7,20 10,29 3,10 5,19 8,27 2,8 7,16 15,24 3,3 6,4 10,2 4,-1 6,-5 6,-9 3,-20 5,-40 6,-61 2,-21 4,-41 7,-60 3,-19 6,-40 8,-63 3,-22 4,-43 6,-62 0,-10 -4,-13 -11,-10 -17,5 -34,12 -51,22 -12,5 -24,9 -36,14 -13,5 -23,7 -30,7l-266 0 0 -494 181 0c49,0 90,9 124,27 33,18 52,55 55,111 0,5 2,7 8,8 5,1 8,-1 10,-6 8,-37 15,-73 22,-109 7,-37 12,-75 17,-117 0,-10 -4,-13 -12,-10 -6,3 -12,6 -19,9 -7,2 -13,5 -19,8l-653 0c-4,0 -7,2 -8,6 0,4 1,8 4,11 12,8 24,14 35,18 12,4 22,8 31,11 17,6 33,14 47,24 14,9 22,30 22,63l0 1002c0,21 -1,41 -4,61 -2,20 -7,39 -15,55 -7,16 -18,29 -33,39 -14,11 -33,16 -56,16l0 19c41,-1 83,-2 125,-3 42,-1 83,-1 125,-1 30,0 60,0 89,1 29,1 59,1 89,1 35,0 71,0 107,1 35,1 71,1 106,1 8,0 18,-2 30,-7l2 -2c6,0 9,-3 9,-8 5,-36 9,-72 14,-107 5,-34 11,-70 18,-107z"/>
  <path class="fil0" d="M3918 4163c-17,-8 -33,-14 -47,-17 -15,-3 -29,-7 -43,-10 -24,-5 -49,-12 -74,-23 -25,-10 -48,-32 -70,-64 -9,-13 -19,-45 -30,-97 -10,-52 -21,-117 -32,-193 -10,-76 -21,-162 -32,-255 -10,-94 -21,-191 -31,-290 -9,-98 -19,-196 -27,-292 -8,-97 -16,-185 -24,-265 -3,-36 -7,-72 -10,-109 -4,-37 -7,-71 -9,-101 -3,-31 -5,-56 -6,-75 -2,-19 -2,-29 -2,-29l-17 -5c0,0 -8,15 -24,44 -16,29 -34,64 -56,107 -21,43 -43,87 -67,133 -24,45 -42,85 -56,119 -8,19 -16,38 -24,58 -9,19 -17,38 -27,58 -33,72 -66,145 -97,218 -31,73 -63,145 -95,218 -39,93 -79,187 -119,283 -39,95 -81,190 -123,283 -20,-40 -46,-100 -77,-178 -31,-79 -66,-161 -104,-246 -32,-69 -68,-144 -107,-225 -39,-82 -78,-163 -119,-244 -73,-146 -147,-292 -222,-437 -29,-58 -53,-105 -72,-140 -18,-35 -27,-53 -27,-53l-16 5c0,0 -1,10 -4,30 -2,20 -5,46 -8,77 -3,31 -6,66 -10,105 -4,38 -8,77 -13,116 -9,83 -18,175 -27,275 -9,101 -19,202 -30,305 -10,103 -21,204 -32,302 -10,98 -20,185 -30,262 -9,77 -17,141 -25,192 -7,50 -13,79 -18,85 -17,26 -34,42 -50,48 -17,7 -38,12 -62,15 -5,2 -10,2 -16,2 -5,0 -9,1 -14,3 -4,1 -6,5 -4,12 1,6 4,9 9,7 21,-3 42,-5 63,-6 20,-1 41,-1 63,-1 56,0 113,2 171,7 57,5 114,7 172,7 4,0 7,-2 9,-7 2,-5 0,-9 -5,-12 -10,-5 -21,-9 -32,-13 -10,-4 -20,-8 -29,-11 -29,-11 -53,-24 -71,-37 -19,-14 -28,-43 -28,-86 0,-138 6,-278 19,-418 12,-141 26,-278 43,-413 6,-55 12,-108 18,-161 6,-52 12,-106 16,-162 37,72 69,140 96,205 28,64 58,134 90,209 62,148 128,299 198,454 69,155 152,302 248,440 3,3 6,5 9,5 3,0 5,-2 7,-5 29,-62 58,-125 86,-188 28,-62 56,-125 83,-188 71,-156 140,-314 209,-474 68,-161 141,-317 217,-468 6,76 13,145 20,210 6,64 14,134 24,209l0 -2c13,120 26,245 37,375 12,129 17,255 17,377 0,17 -3,36 -9,54 -6,19 -12,37 -18,57 -2,4 -3,9 -5,14 -1,5 -3,10 -4,15 -3,8 0,12 9,12 82,3 165,5 247,6 83,0 165,1 247,1l3 -19zm1229 -776c0,-103 -18,-201 -54,-294 -36,-94 -85,-174 -148,-243 -62,-68 -136,-121 -219,-159 -84,-37 -175,-52 -273,-44l-30 2c-108,24 -199,55 -274,93 -75,38 -135,86 -181,145 -46,58 -79,130 -100,214 -20,84 -30,185 -30,303 0,77 21,153 62,228 42,76 95,143 160,203 64,59 134,107 211,144 77,37 152,56 223,56 87,0 170,-16 249,-48 78,-32 147,-77 207,-135 59,-58 107,-127 143,-206 36,-80 54,-166 54,-259zm-154 -3c0,77 -10,150 -31,220 -20,69 -51,129 -91,181 -41,53 -91,94 -150,126 -60,31 -128,47 -206,47 -82,0 -156,-20 -220,-59 -64,-40 -118,-91 -163,-155 -45,-63 -79,-134 -102,-213 -23,-78 -35,-158 -35,-238 0,-77 12,-150 34,-218 22,-69 53,-129 95,-181 41,-52 92,-93 152,-123 60,-30 129,-45 207,-45 82,0 155,20 219,58 63,39 116,89 160,152 43,63 76,133 98,212 22,79 33,158 33,236zm1513 -55c0,-90 -16,-175 -47,-254 -31,-80 -74,-149 -129,-208 -55,-58 -120,-104 -196,-138 -75,-34 -157,-51 -246,-51 -29,0 -59,1 -90,1 -31,1 -62,3 -91,6 -30,4 -61,6 -91,8 -31,1 -61,2 -92,2 -24,0 -50,-1 -78,-2 -27,-2 -52,-4 -75,-5 -20,-2 -39,-3 -57,-4 -19,-1 -38,-1 -57,-1 -11,0 -13,5 -7,14 4,9 11,14 20,17 9,4 19,6 30,8 18,3 37,10 55,20 18,10 27,34 27,71l0 995c0,52 -5,90 -17,116 -11,26 -42,44 -92,55 -5,2 -7,6 -6,11 1,6 3,9 8,9 44,-2 89,-1 134,2 45,3 89,7 134,10 39,3 80,6 122,9 42,4 83,5 122,5 107,0 205,-14 293,-42 89,-28 164,-71 227,-128 63,-57 111,-129 146,-217 36,-87 53,-190 53,-309zm-156 67c0,92 -13,172 -41,241 -27,69 -66,127 -116,173 -51,45 -111,80 -180,103 -70,23 -146,35 -230,35 -41,0 -77,-2 -107,-6 -29,-4 -54,-13 -74,-28 -20,-14 -35,-35 -45,-62 -9,-28 -14,-65 -14,-111l0 -957c29,-11 58,-18 89,-21 30,-4 61,-5 91,-5 92,0 176,15 253,44 77,30 143,73 198,128 55,55 98,123 130,201 31,79 46,167 46,265zm692 612l0 -19c-55,-5 -94,-20 -116,-47 -22,-26 -33,-70 -33,-131l0 -993c0,-42 10,-68 31,-80 20,-11 47,-20 81,-28 5,-2 6,-6 5,-13 -2,-6 -5,-8 -10,-7 -30,5 -61,8 -93,10 -32,1 -64,2 -96,2 -34,0 -67,-1 -99,-2 -32,-2 -64,-4 -96,-7 -5,0 -7,2 -8,8 -1,6 1,9 6,11 32,5 60,14 83,29 24,14 36,40 36,77l0 1000c0,42 -9,78 -27,107 -17,30 -45,52 -83,66 -5,2 -7,6 -6,11 1,6 4,9 8,9 41,-2 82,-3 121,-4 40,-1 81,-1 122,-1 29,0 57,0 86,1 28,1 57,1 88,1z"/>
  <path class="fil0 str0" d="M8641 4521l-2179 0 -1408 -63 -95 63 -135 0c-12,-5 -22,-13 -35,-25 0,-7 0,-15 0,-23 -49,27 -78,39 -130,48l-103 0c-7,-31 -33,-55 -65,-55 -32,0 -58,24 -64,55l-144 0c-6,-31 -32,-55 -64,-55 -32,0 -58,24 -65,55l-112 0c-52,-9 -82,-21 -130,-48 0,8 0,16 0,23 -13,12 -23,20 -36,25l-106 0 -95 -63 -1409 63 -2178 0 0 30 2179 0 1408 63 95 -63 106 0c13,5 23,13 36,25 0,7 0,15 0,23 48,-27 78,-39 130,-48l112 0c7,31 33,55 65,55 32,0 58,-24 64,-55l144 0c6,31 32,55 64,55 32,0 58,-24 65,-55l103 0c52,9 81,21 130,48 0,-8 0,-16 0,-23 13,-12 23,-20 36,-25l134 0 95 63 1408 -63 2179 0 0 -30z"/>
  <path class="fil0" d="M8105 505l4 85 -9 0c-2,-15 -5,-26 -8,-32 -5,-10 -12,-18 -21,-23 -9,-5 -20,-7 -34,-7l-49 0 0 276c0,22 3,36 7,42 7,7 16,11 30,11l12 0 0 10 -146 0 0 -10 12 0c15,0 25,-5 31,-14 4,-6 6,-19 6,-39l0 -276 -41 0c-16,0 -28,1 -35,4 -8,3 -16,9 -22,19 -6,10 -10,23 -11,39l-10 0 4 -85 280 0zm229 362l-133 -305 0 242c0,22 3,36 7,42 6,7 16,11 30,11l12 0 0 10 -120 0 0 -10 12 0c15,0 25,-5 31,-14 4,-6 6,-19 6,-39l0 -236c0,-16 -2,-28 -5,-35 -3,-5 -7,-9 -13,-13 -7,-3 -17,-5 -31,-5l0 -10 98 0 124 283 123 -283 97 0 0 10 -12 0c-15,0 -25,4 -32,14 -3,5 -5,18 -5,39l0 236c0,22 2,36 7,42 6,7 16,11 30,11l12 0 0 10 -147 0 0 -10 12 0c15,0 25,-5 31,-14 4,-6 6,-19 6,-39l0 -242 -132 305 -8 0z"/>
 </g>
</svg>
